# xmcd
#
# Track frame offsets:
#        151
#        33805
#        65003
#        95648
#        120506
#        141182
#        161662
#        183233
#        218268
#        249751
#
# Disc length: 3779 seconds
#
# Revision: 0
# Processed by: cddbd v1.5.1PL0 Copyright (c) Steve Scherf et al.
# Submitted via: ExactAudioCopy v0.95a5
#
DISCID=7d0ec10a
DTITLE=Eric Clapton - COME DOWN OFF
DYEAR=2003
DGENRE=Blues
TTITLE0=Before You Accuse Me
TTITLE1=Kind Hearted Woman
TTITLE2=Badge
TTITLE3=Holy Mother
TTITLE4=Lay Down Sally
TTITLE5=Wonderful Tonight
TTITLE6=Cocaine
TTITLE7=Layla
TTITLE8=Sunshine Of Your Love
TTITLE9=Band Intro - Somewhere Over The Rainbow
EXTD=
EXTT0=
EXTT1=
EXTT2=
EXTT3=
EXTT4=
EXTT5=
EXTT6=
EXTT7=
EXTT8=
EXTT9=
PLAYORDER=
